<svg width="39" height="40" viewBox="0 0 39 40" fill="none" xmlns="http://www.w3.org/2000/svg">
<path d="M16.9246 29.2L30.0554 15.1L27.4479 12.3L16.9246 23.6L11.6164 17.9L9.00886 20.7L16.9246 29.2ZM19.5321 40C16.9556 40 14.5344 39.4747 12.2683 38.424C10.0022 37.3733 8.03103 35.9487 6.35475 34.15C4.67848 32.3513 3.35174 30.2347 2.37453 27.8C1.39733 25.3653 0.908104 22.7653 0.906863 20C0.905621 17.2347 1.39484 14.6347 2.37453 12.2C3.35422 9.76533 4.68096 7.64866 6.35475 5.85C8.02855 4.05133 9.99972 2.62667 12.2683 1.576C14.5368 0.525333 16.9581 0 19.5321 0C22.1061 0 24.5274 0.525333 26.796 1.576C29.0645 2.62667 31.0357 4.05133 32.7095 5.85C34.3833 7.64866 35.7107 9.76533 36.6916 12.2C37.6725 14.6347 38.1611 17.2347 38.1574 20C38.1537 22.7653 37.6645 25.3653 36.6897 27.8C35.715 30.2347 34.3883 32.3513 32.7095 34.15C31.0308 35.9487 29.0596 37.374 26.796 38.426C24.5324 39.478 22.1111 40.0027 19.5321 40ZM19.5321 36C23.6918 36 27.2151 34.45 30.102 31.35C32.9889 28.25 34.4324 24.4667 34.4324 20C34.4324 15.5333 32.9889 11.75 30.102 8.65C27.2151 5.55 23.6918 4 19.5321 4C15.3725 4 11.8492 5.55 8.96229 8.65C6.07538 11.75 4.63192 15.5333 4.63192 20C4.63192 24.4667 6.07538 28.25 8.96229 31.35C11.8492 34.45 15.3725 36 19.5321 36Z" fill="#163247"/>
</svg>
